<svg width="25" height="25" viewBox="0 0 25 25" fill="none" xmlns="http://www.w3.org/2000/svg">
<path d="M21.0938 6.44531H16.9922V6.25C16.9922 5.0586 16.5189 3.91599 15.6765 3.07354C14.834 2.2311 13.6914 1.75781 12.5 1.75781C11.3086 1.75781 10.166 2.2311 9.32354 3.07354C8.4811 3.91599 8.00781 5.0586 8.00781 6.25V6.44531H3.90625C3.54365 6.44531 3.1959 6.58935 2.9395 6.84575C2.68311 7.10215 2.53906 7.4499 2.53906 7.8125V19.5312C2.53906 19.8939 2.68311 20.2416 2.9395 20.498C3.1959 20.7544 3.54365 20.8984 3.90625 20.8984H21.0938C21.4564 20.8984 21.8041 20.7544 22.0605 20.498C22.3169 20.2416 22.4609 19.8939 22.4609 19.5312V7.8125C22.4609 7.4499 22.3169 7.10215 22.0605 6.84575C21.8041 6.58935 21.4564 6.44531 21.0938 6.44531ZM9.17969 6.25C9.17969 5.3694 9.5295 4.52486 10.1522 3.90218C10.7749 3.27951 11.6194 2.92969 12.5 2.92969C13.3806 2.92969 14.2251 3.27951 14.8478 3.90218C15.4705 4.52486 15.8203 5.3694 15.8203 6.25V6.44531H9.17969V6.25ZM21.2891 19.5312C21.2891 19.5831 21.2685 19.6327 21.2319 19.6694C21.1952 19.706 21.1456 19.7266 21.0938 19.7266H3.90625C3.85445 19.7266 3.80477 19.706 3.76814 19.6694C3.73151 19.6327 3.71094 19.5831 3.71094 19.5312V7.8125C3.71094 7.7607 3.73151 7.71102 3.76814 7.67439C3.80477 7.63776 3.85445 7.61719 3.90625 7.61719H8.00781V9.375C8.00781 9.5304 8.06955 9.67944 8.17943 9.78932C8.28931 9.8992 8.43835 9.96094 8.59375 9.96094C8.74915 9.96094 8.89819 9.8992 9.00807 9.78932C9.11795 9.67944 9.17969 9.5304 9.17969 9.375V7.61719H15.8203V9.375C15.8203 9.5304 15.882 9.67944 15.9919 9.78932C16.1018 9.8992 16.2508 9.96094 16.4062 9.96094C16.5617 9.96094 16.7107 9.8992 16.8206 9.78932C16.9305 9.67944 16.9922 9.5304 16.9922 9.375V7.61719H21.0938C21.1456 7.61719 21.1952 7.63776 21.2319 7.67439C21.2685 7.71102 21.2891 7.7607 21.2891 7.8125V19.5312Z" fill="black"/>
</svg>
