<svg id="Capa_1" enable-background="new 0 0 512.047 512.047" viewBox="0 0 512.047 512.047" xmlns="http://www.w3.org/2000/svg"><g><path d="m494.188 176.961-55.061-56.818-35.848-71.193-77.286-12.877-69.97-36.073-69.969 36.073-77.286 12.877-35.848 71.193-55.061 56.818 11.894 79.062-11.894 79.062 55.061 56.819 35.848 71.193 77.286 12.877 69.969 36.073 69.97-36.073 77.286-12.877 15.665-31.11-13.398-6.746-12.24 24.311-72.097 12.012-65.186 33.607-65.185-33.607-72.097-12.012-33.455-66.441-51.49-53.134 11.126-73.954-11.126-73.953 51.49-53.134 33.455-66.441 72.097-12.013 65.185-33.606 65.186 33.606 72.097 12.013 33.455 66.441 51.489 53.134-11.125 73.953 11.125 73.954-51.489 53.134-14.469 28.733 13.397 6.746 13.438-26.686 55.061-56.819-11.894-79.062z" fill="#000000" style="fill: rgb(255, 255, 255);"></path><path d="m97.653 374.318 31.062 61.689 66.907 11.147 60.401 31.14 60.402-31.14 66.907-11.147 31.062-61.689 47.919-49.449-10.357-68.846 10.357-68.845-47.919-49.449-31.062-61.689-66.907-11.147-60.402-31.141-60.401 31.141-66.907 11.147-13.272 26.357 13.398 6.746 9.848-19.558 61.717-10.283 55.617-28.674 55.618 28.674 61.717 10.283 28.669 56.936 44.349 45.765-9.589 63.737 9.589 63.738-44.349 45.764-28.669 56.937-61.717 10.283-55.618 28.673-55.617-28.673-61.717-10.283-28.669-56.937-44.349-45.764 9.589-63.738-9.589-63.737 44.349-45.765 12.075-23.98-13.397-6.747-11.045 21.935-47.92 49.449 10.358 68.845-10.358 68.846z" fill="#000000" style="fill: rgb(255, 255, 255);"></path><path d="m234.811 256.024-42.427-42.427-42.426 42.426 84.853 84.853 127.278-127.278-42.426-42.426zm0 63.639-63.64-63.64 21.213-21.213 42.427 42.427 84.853-84.853 21.213 21.213z" fill="#000000" style="fill: rgb(255, 255, 255);"></path><path d="m354.27 109.101h15v15h-15z" transform="matrix(.893 -.45 .45 .893 -13.789 175.159)" fill="#000000" style="fill: rgb(255, 255, 255);"></path><path d="m367.762 135.896h15v15h-15z" transform="matrix(.893 -.45 .45 .893 -24.399 184.078)" fill="#000000" style="fill: rgb(255, 255, 255);"></path></g></svg>