<svg id="Layer_1" viewBox="0 0 64 64" xmlns="http://www.w3.org/2000/svg"><g><g id="LINE_25_"><g><path d="m31.46 35.912c-.49 0-.981-.179-1.367-.54-.806-.756-.847-2.021-.092-2.827l20.496-21.875c.755-.808 2.021-.848 2.827-.093.806.756.847 2.021.092 2.827l-20.496 21.875c-.393.421-.926.633-1.46.633z" fill="rgb(0,0,0)" style="fill: rgb(255, 255, 255);"></path></g></g><g id="LINE_26_"><g><path d="m31.46 35.912c-.49 0-.981-.179-1.367-.541l-8.446-7.914c-.806-.755-.847-2.021-.092-2.826.755-.808 2.021-.849 2.827-.092l8.446 7.914c.806.755.847 2.021.092 2.826-.393.421-.926.633-1.46.633z" fill="rgb(0,0,0)" style="fill: rgb(255, 255, 255);"></path></g></g><g id="ARC_5_"><g><path d="m31.989 53.949c-4.589 0-9.197-1.386-13.039-4.177-9.026-6.556-11.625-19.277-5.916-28.962 5.417-9.188 17.409-13.192 27.306-9.112 1.021.421 1.508 1.59 1.087 2.61-.421 1.021-1.589 1.511-2.611 1.087-8.096-3.335-17.908-.067-22.335 7.446-4.596 7.797-2.434 18.426 4.82 23.694 6.523 4.737 15.732 4.546 21.896-.458 5.96-4.838 8.277-13.189 5.632-20.309-.384-1.035.143-2.187 1.179-2.571 1.037-.385 2.187.144 2.571 1.179 3.232 8.703.411 18.903-6.862 24.807-3.904 3.171-8.805 4.766-13.728 4.766z" fill="rgb(0,0,0)" style="fill: rgb(255, 255, 255);"></path></g></g></g></svg>