<svg width="25" height="25" viewBox="0 0 25 25" fill="none" xmlns="http://www.w3.org/2000/svg">
<path d="M8.33333 9.37501H16.6667M8.33333 13.5417H11.9792M10.9167 20.325L8.33333 21.875V18.75H6.25C5.4212 18.75 4.62634 18.4208 4.04029 17.8347C3.45424 17.2487 3.125 16.4538 3.125 15.625V7.29167C3.125 6.46287 3.45424 5.66801 4.04029 5.08196C4.62634 4.49591 5.4212 4.16667 6.25 4.16667H18.75C19.5788 4.16667 20.3737 4.49591 20.9597 5.08196C21.5458 5.66801 21.875 6.46287 21.875 7.29167V11.4583" stroke="black" stroke-linecap="round" stroke-linejoin="round"/>
<path d="M18.2289 21.875L21.2821 18.9427C21.4693 18.7647 21.6182 18.5518 21.7201 18.3164C21.8219 18.0811 21.8746 17.8282 21.875 17.5726C21.8754 17.317 21.8236 17.0639 21.7225 16.8282C21.6215 16.5926 21.4732 16.3792 21.2866 16.2006C20.9058 15.8357 20.3946 15.6309 19.8619 15.6299C19.3292 15.6289 18.8172 15.8318 18.4349 16.1952L18.2308 16.3917L18.0275 16.1952C17.6467 15.8306 17.1357 15.626 16.6033 15.625C16.0708 15.624 15.559 15.8267 15.1768 16.1899C14.9895 16.3678 14.8405 16.5807 14.7385 16.816C14.6366 17.0513 14.5839 17.3042 14.5833 17.5598C14.5828 17.8154 14.6346 18.0685 14.7356 18.3042C14.8366 18.5399 14.9847 18.7533 15.1713 18.932L18.2289 21.875Z" stroke="black" stroke-linecap="round" stroke-linejoin="round"/>
</svg>
