<!-- icon666.com - MILLIONS vector ICONS FREE --><svg id="Layer_1" viewBox="0 0 64 64" xmlns="http://www.w3.org/2000/svg"><g><g id="LINE_652_"><g><path d="m28.978 39.113c-.54 0-1.077-.217-1.472-.645l-5.621-6.101c-.749-.812-.697-2.078.115-2.826.813-.75 2.078-.697 2.826.116l5.621 6.101c.749.812.697 2.078-.115 2.826-.385.354-.87.529-1.354.529z" fill="rgb(0,0,0)" style="fill: rgb(255, 255, 255);"></path></g></g><g id="LINE_653_"><g><path d="m28.978 39.113c-.557 0-1.109-.23-1.505-.682-.729-.831-.645-2.094.186-2.822l11.668-10.226c.831-.73 2.094-.645 2.822.186.729.831.645 2.094-.186 2.822l-11.668 10.226c-.38.333-.85.496-1.317.496z" fill="rgb(0,0,0)" style="fill: rgb(255, 255, 255);"></path></g></g><g id="ARC_299_"><g><path d="m30.922 52.037c-.658 0-1.303-.325-1.685-.92-.597-.93-.326-2.167.604-2.764 1.311-.842 3.008-.842 4.318 0 .913.586 1.149 1.768.587 2.695-.564.927-1.807 1.21-2.746.671-.334.216-.708.318-1.078.318z" fill="rgb(0,0,0)" style="fill: rgb(255, 255, 255);"></path></g></g><g id="LINE_654_"><g><path d="m35.606 53.658c-.369 0-.743-.103-1.077-.317l-2.529-1.621c-.93-.596-1.201-1.833-.604-2.763.596-.93 1.831-1.203 2.763-.604l2.529 1.621c.93.596 1.201 1.833.604 2.763-.382.595-1.026.921-1.686.921z" fill="rgb(0,0,0)" style="fill: rgb(255, 255, 255);"></path></g></g><g id="LINE_655_"><g><path d="m28.394 53.658c-.659 0-1.304-.325-1.686-.921-.597-.93-.325-2.167.604-2.763l2.529-1.621c.93-.598 2.166-.326 2.763.604s.325 2.167-.604 2.763l-2.529 1.621c-.334.214-.708.317-1.077.317z" fill="rgb(0,0,0)" style="fill: rgb(255, 255, 255);"></path></g></g><g id="ARC_300_"><g><path d="m23.919 50.16c-.724 0-1.422-.394-1.778-1.081v-.001c-1.087.047-2.039-.802-2.091-1.906-.051-1.103.802-2.039 1.904-2.09 1.566-.058 3.022.775 3.739 2.157.508.981.124 2.188-.856 2.696-.294.152-.608.225-.918.225z" fill="rgb(0,0,0)" style="fill: rgb(255, 255, 255);"></path></g></g><g id="LINE_656_"><g><path d="m25.298 52.828c-.725 0-1.424-.395-1.778-1.083l-1.379-2.668c-.508-.981-.123-2.188.858-2.695.979-.509 2.188-.123 2.694.859l1.379 2.668c.508.981.123 2.188-.858 2.695-.293.152-.608.224-.916.224z" fill="rgb(0,0,0)" style="fill: rgb(255, 255, 255);"></path></g></g><g id="LINE_657_"><g><path d="m19.045 49.22c-1.062 0-1.946-.835-1.996-1.907-.051-1.103.802-2.039 1.905-2.091l3-.14c1.059-.039 2.04.801 2.091 1.905.051 1.103-.802 2.039-1.905 2.091l-3 .14c-.032.001-.063.002-.095.002z" fill="rgb(0,0,0)" style="fill: rgb(255, 255, 255);"></path></g></g><g id="ARC_301_"><g><path d="m17.031 43.235c-.753 0-1.652-.795-2.109-1.376-.98-.507-1.364-1.713-.857-2.695.507-.981 1.712-1.367 2.694-.858 1.384.715 2.231 2.183 2.159 3.739-.039.835-.806.892-1.601 1.147-.091.03-.188.043-.286.043z" fill="rgb(0,0,0)" style="fill: rgb(255, 255, 255);"></path></g></g><g id="LINE_658_"><g><path d="m16.782 46.953c-.032 0-.063 0-.095-.002-1.104-.052-1.956-.988-1.905-2.091l.14-3c.052-1.104 1.03-1.954 2.091-1.905 1.104.052 1.956.988 1.905 2.091l-.14 3c-.049 1.072-.934 1.907-1.996 1.907z" fill="rgb(0,0,0)" style="fill: rgb(255, 255, 255);"></path></g></g><g id="LINE_659_"><g><path d="m15.839 42.083c-.309 0-.623-.072-.916-.224l-2.668-1.379c-.981-.507-1.366-1.714-.858-2.695.507-.981 1.712-1.368 2.694-.858l2.668 1.379c.981.507 1.366 1.714.858 2.695-.355.688-1.054 1.082-1.778 1.082z" fill="rgb(0,0,0)" style="fill: rgb(255, 255, 255);"></path></g></g><g id="ARC_302_"><g><path d="m15.647 34.159-1.684-1.079 1.684-3.238c.841 1.311.841 3.005 0 4.317z" fill="rgb(0,0,0)" style="fill: rgb(255, 255, 255);"></path></g></g><g id="LINE_660_"><g><path d="m12.341 37.608c-.369 0-.743-.102-1.077-.316-.931-.596-1.201-1.833-.604-2.763l1.62-2.529c.595-.93 1.832-1.202 2.763-.604.931.596 1.201 1.833.604 2.763l-1.621 2.528c-.381.596-1.026.921-1.685.921z" fill="rgb(0,0,0)" style="fill: rgb(255, 255, 255);"></path></g></g><g id="LINE_661_"><g><path d="m13.966 32.92c-.659 0-1.304-.325-1.686-.92l-1.621-2.528c-.597-.93-.326-2.167.604-2.763.931-.598 2.167-.326 2.763.604l1.621 2.528c.597.93.326 2.167-.604 2.763-.334.214-.708.316-1.077.316z" fill="rgb(0,0,0)" style="fill: rgb(255, 255, 255);"></path></g></g><g id="ARC_303_"><g><path d="m15.887 25.909c-.69 0-1.349-.387-1.721-1.045-.529-.936-.159-2.159.756-2.724-.051-1.103.802-2.04 1.905-2.09 1.09-.055 2.039.801 2.091 1.905.072 1.556-.775 3.023-2.159 3.739-.283.146-.58.215-.872.215z" fill="rgb(0,0,0)" style="fill: rgb(255, 255, 255);"></path></g></g><g id="LINE_662_"><g><path d="m13.175 27.296c-.725 0-1.423-.395-1.778-1.082-.508-.981-.123-2.188.858-2.695l2.668-1.379c.979-.508 2.188-.122 2.694.858.508.981.123 2.188-.858 2.695l-2.668 1.379c-.293.152-.608.224-.916.224z" fill="rgb(0,0,0)" style="fill: rgb(255, 255, 255);"></path></g></g><g id="LINE_663_"><g><path d="m16.918 24.047c-1.062 0-1.946-.835-1.996-1.907l-.14-3c-.051-1.103.802-2.039 1.905-2.091 1.071-.045 2.04.801 2.091 1.905l.14 3c.051 1.103-.802 2.039-1.905 2.091-.032.002-.063.002-.095.002z" fill="rgb(0,0,0)" style="fill: rgb(255, 255, 255);"></path></g></g><g id="ARC_304_"><g><path d="m22.138 18.922c-.061 0-.122-.001-.184-.004-1.103-.051-1.956-.987-1.905-2.09.051-1.104.958-1.971 2.091-1.906h.001c.508-.98 1.715-1.365 2.696-.856.98.508 1.364 1.714.856 2.695-.688 1.327-2.069 2.161-3.555 2.161z" fill="rgb(0,0,0)" style="fill: rgb(255, 255, 255);"></path></g></g><g id="LINE_664_"><g><path d="m22.049 18.92c-.032 0-.063 0-.095-.002l-3-.14c-1.104-.052-1.956-.988-1.905-2.091.052-1.104 1.042-1.955 2.091-1.905l3 .14c1.104.052 1.956.988 1.905 2.091-.05 1.071-.935 1.907-1.996 1.907z" fill="rgb(0,0,0)" style="fill: rgb(255, 255, 255);"></path></g></g><g id="LINE_665_"><g><path d="m23.915 17.841c-.309 0-.623-.072-.916-.224-.981-.507-1.366-1.714-.858-2.695l1.379-2.668c.505-.981 1.713-1.368 2.694-.859.981.507 1.366 1.714.858 2.695l-1.379 2.668c-.354.689-1.053 1.083-1.778 1.083z" fill="rgb(0,0,0)" style="fill: rgb(255, 255, 255);"></path></g></g><g id="ARC_305_"><g><path d="m32 16.278c-.752 0-1.504-.21-2.159-.631-.913-.586-1.149-1.768-.587-2.695.563-.928 1.805-1.21 2.746-.671.928-.597 2.166-.328 2.763.603.597.93.326 2.167-.604 2.764-.655.42-1.407.63-2.159.63z" fill="rgb(0,0,0)" style="fill: rgb(255, 255, 255);"></path></g></g><g id="LINE_666_"><g><path d="m33.081 15.964c-.659 0-1.304-.325-1.686-.921-.597-.93-.325-2.167.604-2.763l2.529-1.621c.93-.598 2.166-.326 2.763.604s.325 2.167-.604 2.763l-2.529 1.621c-.334.215-.708.317-1.077.317z" fill="rgb(0,0,0)" style="fill: rgb(255, 255, 255);"></path></g></g><g id="LINE_667_"><g><path d="m30.919 15.964c-.369 0-.743-.103-1.077-.317l-2.529-1.621c-.93-.596-1.201-1.833-.604-2.763.596-.93 1.832-1.202 2.763-.604l2.528 1.621c.93.596 1.201 1.833.604 2.763-.381.596-1.026.921-1.685.921z" fill="rgb(0,0,0)" style="fill: rgb(255, 255, 255);"></path></g></g><g id="ARC_306_"><g><path d="m41.862 18.922c-1.486 0-2.867-.833-3.556-2.161-.508-.981-.124-2.188.856-2.696s2.188-.125 2.696.856v.001c1.086-.044 2.039.802 2.091 1.906.051 1.103-.802 2.039-1.904 2.09-.061.002-.122.004-.183.004z" fill="rgb(0,0,0)" style="fill: rgb(255, 255, 255);"></path></g></g><g id="LINE_668_"><g><path d="m40.085 17.841c-.725 0-1.424-.395-1.778-1.083l-1.379-2.668c-.508-.981-.123-2.188.858-2.695.98-.509 2.188-.123 2.694.859l1.379 2.668c.508.981.123 2.188-.858 2.695-.293.153-.607.224-.916.224z" fill="rgb(0,0,0)" style="fill: rgb(255, 255, 255);"></path></g></g><g id="LINE_669_"><g><path d="m41.951 18.92c-1.062 0-1.946-.835-1.996-1.907-.051-1.103.802-2.039 1.905-2.091l3-.14c1.071-.049 2.039.801 2.091 1.905.051 1.103-.802 2.039-1.905 2.091l-3 .14c-.031.001-.063.002-.095.002z" fill="rgb(0,0,0)" style="fill: rgb(255, 255, 255);"></path></g></g><g id="ARC_307_"><g><path d="m48.157 25.917c-.309 0-.623-.072-.916-.224-1.384-.715-2.231-2.183-2.159-3.739.039-.835.806-.892 1.601-1.147.802-.257 1.879.677 2.396 1.333.98.507 1.364 1.713.857 2.695-.356.688-1.054 1.082-1.779 1.082z" fill="rgb(0,0,0)" style="fill: rgb(255, 255, 255);"></path></g></g><g id="LINE_670_"><g><path d="m47.082 24.047c-.032 0-.063 0-.095-.002-1.104-.052-1.956-.988-1.905-2.091l.14-3c.052-1.104 1.041-1.951 2.091-1.905 1.104.052 1.956.988 1.905 2.091l-.14 3c-.05 1.072-.934 1.907-1.996 1.907z" fill="rgb(0,0,0)" style="fill: rgb(255, 255, 255);"></path></g></g><g id="LINE_671_"><g><path d="m50.825 27.296c-.309 0-.623-.072-.916-.224l-2.668-1.379c-.981-.507-1.366-1.714-.858-2.695.506-.98 1.713-1.368 2.694-.858l2.668 1.379c.981.507 1.366 1.714.858 2.695-.355.688-1.053 1.082-1.778 1.082z" fill="rgb(0,0,0)" style="fill: rgb(255, 255, 255);"></path></g></g><g id="ARC_308_"><g><path d="m48.353 34.159c-.841-1.312-.841-3.006 0-4.317l1.684 1.079z" fill="rgb(0,0,0)" style="fill: rgb(255, 255, 255);"></path></g></g><g id="LINE_672_"><g><path d="m50.034 32.92c-.369 0-.743-.102-1.077-.316-.931-.596-1.201-1.833-.604-2.763l1.621-2.528c.595-.93 1.831-1.202 2.763-.604.931.596 1.201 1.833.604 2.763l-1.621 2.528c-.382.596-1.027.92-1.686.92z" fill="rgb(0,0,0)" style="fill: rgb(255, 255, 255);"></path></g></g><g id="LINE_673_"><g><path d="m51.659 37.608c-.659 0-1.304-.325-1.686-.92l-1.621-2.528c-.597-.93-.326-2.167.604-2.763.93-.598 2.167-.326 2.763.604l1.621 2.528c.597.93.326 2.167-.604 2.763-.334.214-.708.316-1.077.316z" fill="rgb(0,0,0)" style="fill: rgb(255, 255, 255);"></path></g></g><g id="ARC_309_"><g><path d="m47.078 43.952c-1.062 0-1.946-.835-1.996-1.907-.072-1.556.775-3.023 2.159-3.739.953-.494 2.063-.106 2.593.83.529.936.159 2.159-.756 2.724.051 1.103-.802 2.04-1.905 2.09-.031.001-.064.002-.095.002z" fill="rgb(0,0,0)" style="fill: rgb(255, 255, 255);"></path></g></g><g id="LINE_674_"><g><path d="m48.161 42.083c-.725 0-1.423-.395-1.778-1.082-.508-.981-.123-2.188.858-2.695l2.668-1.379c.979-.508 2.188-.123 2.694.858.508.981.123 2.188-.858 2.695l-2.668 1.379c-.293.152-.607.224-.916.224z" fill="rgb(0,0,0)" style="fill: rgb(255, 255, 255);"></path></g></g><g id="LINE_675_"><g><path d="m47.218 46.953c-1.062 0-1.946-.835-1.996-1.907l-.14-3c-.051-1.103.802-2.039 1.905-2.091 1.065-.049 2.04.801 2.091 1.905l.14 3c.051 1.103-.802 2.039-1.905 2.091-.032.002-.063.002-.095.002z" fill="rgb(0,0,0)" style="fill: rgb(255, 255, 255);"></path></g></g><g id="ARC_310_"><g><path d="m40.081 50.159c-.31 0-.624-.072-.918-.225-.98-.508-1.364-1.714-.856-2.695.717-1.382 2.167-2.215 3.739-2.157 1.103.051 1.956.987 1.905 2.09-.052 1.103-.969 1.953-2.091 1.906h-.001c-.355.687-1.054 1.081-1.778 1.081z" fill="rgb(0,0,0)" style="fill: rgb(255, 255, 255);"></path></g></g><g id="LINE_676_"><g><path d="m44.955 49.22c-.032 0-.063 0-.095-.002l-3-.14c-1.104-.052-1.956-.988-1.905-2.091.052-1.104 1.038-1.944 2.091-1.905l3 .14c1.104.052 1.956.988 1.905 2.091-.05 1.071-.934 1.907-1.996 1.907z" fill="rgb(0,0,0)" style="fill: rgb(255, 255, 255);"></path></g></g><g id="LINE_677_"><g><path d="m38.702 52.828c-.309 0-.623-.072-.916-.224-.981-.507-1.366-1.714-.858-2.695l1.379-2.668c.505-.981 1.713-1.368 2.694-.859.981.507 1.366 1.714.858 2.695l-1.379 2.668c-.354.689-1.053 1.083-1.778 1.083z" fill="rgb(0,0,0)" style="fill: rgb(255, 255, 255);"></path></g></g><g id="ARC_311_"><g><path d="m16.778 21.047c-1.064 0-1.949-.839-1.996-1.913-.051-1.162.397-2.305 1.229-3.134.83-.827 1.976-1.273 3.128-1.217 1.104.051 1.956.987 1.905 2.091s-1.032 1.953-2.091 1.905c-.002 0-.004 0-.005 0-.051 0-.092.034-.113.054-.018.019-.061.067-.058.128.048 1.104-.808 2.037-1.911 2.085-.028 0-.058.001-.088.001z" fill="rgb(0,0,0)" style="fill: rgb(255, 255, 255);"></path></g></g><g id="ARC_312_"><g><path d="m12.345 30.393c-.66 0-1.307-.327-1.688-.925-.625-.98-.808-2.194-.502-3.329.305-1.132 1.07-2.087 2.101-2.619.982-.509 2.188-.122 2.695.859s.122 2.188-.859 2.695c-.047.024-.066.077-.074.106-.007.025-.02.088.013.138.594.932.32 2.168-.611 2.762-.335.211-.707.313-1.075.313z" fill="rgb(0,0,0)" style="fill: rgb(255, 255, 255);"></path></g></g><g id="ARC_313_"><g><path d="m13.171 40.705c-.309 0-.622-.072-.915-.223-1.033-.533-1.8-1.49-2.104-2.626s-.119-2.349.508-3.327c.597-.93 1.833-1.199 2.764-.604.93.597 1.2 1.833.604 2.764-.029.046-.018.107-.012.131.007.024.027.083.075.108.981.507 1.367 1.713.86 2.695-.356.687-1.055 1.082-1.78 1.082z" fill="rgb(0,0,0)" style="fill: rgb(255, 255, 255);"></path></g></g><g id="ARC_314_"><g><path d="m18.956 49.222c-1.1 0-2.169-.444-2.956-1.234-.828-.83-1.271-1.97-1.218-3.127.052-1.104 1.038-1.955 2.091-1.905 1.104.051 1.956.988 1.905 2.091-.003.053.033.096.054.118.019.018.025.042.128.058 1.054-.046 2.037.807 2.085 1.911s-.808 2.037-1.911 2.085c-.06.001-.118.003-.178.003z" fill="rgb(0,0,0)" style="fill: rgb(255, 255, 255);"></path></g></g><g id="ARC_315_"><g><path d="m27.239 53.994c-.36 0-.723-.046-1.077-.141-1.145-.303-2.107-1.071-2.643-2.107-.508-.981-.123-2.188.858-2.695.983-.509 2.188-.123 2.694.859.021.04.072.066.114.077.018.006.076.019.116-.006.926-.603 2.163-.338 2.767.588.602.926.338 2.165-.589 2.767-.666.433-1.448.658-2.24.658z" fill="rgb(0,0,0)" style="fill: rgb(255, 255, 255);"></path></g></g><g id="ARC_316_"><g><path d="m36.765 53.992c-.788 0-1.566-.222-2.236-.651-.93-.596-1.2-1.833-.604-2.763s1.831-1.201 2.764-.604c.041.027.09.02.125.012.031-.008.09-.031.12-.088.514-.978 1.722-1.353 2.7-.841.978.514 1.354 1.723.841 2.701-.541 1.031-1.503 1.795-2.639 2.096-.353.092-.713.138-1.071.138z" fill="rgb(0,0,0)" style="fill: rgb(255, 255, 255);"></path></g></g><g id="ARC_317_"><g><path d="m45.049 49.222c-.063 0-.126-.001-.188-.004-1.104-.051-1.956-.987-1.905-2.091.052-1.104 1.037-1.951 2.091-1.905h.005c.051 0 .092-.034.113-.054.018-.019.061-.067.058-.128-.048-1.104.808-2.037 1.911-2.085 1.094-.051 2.037.808 2.085 1.911.051 1.162-.397 2.305-1.229 3.134-.787.783-1.848 1.222-2.941 1.222z" fill="rgb(0,0,0)" style="fill: rgb(255, 255, 255);"></path></g></g><g id="ARC_318_"><g><path d="m50.829 40.705c-.725 0-1.424-.395-1.779-1.083-.507-.981-.122-2.188.859-2.695.047-.024.066-.077.074-.106.007-.025.02-.088-.013-.138-.594-.932-.32-2.168.611-2.762.931-.592 2.167-.32 2.762.611.625.98.808 2.194.502 3.329-.305 1.132-1.07 2.087-2.101 2.619-.293.153-.606.225-.915.225z" fill="rgb(0,0,0)" style="fill: rgb(255, 255, 255);"></path></g></g><g id="ARC_319_"><g><path d="m51.655 30.393c-.37 0-.743-.103-1.078-.317-.93-.597-1.2-1.833-.604-2.764.029-.046.018-.107.012-.131-.007-.024-.027-.083-.075-.108-.981-.507-1.367-1.713-.86-2.695.507-.981 1.712-1.368 2.694-.86 1.033.533 1.8 1.49 2.104 2.626s.119 2.349-.508 3.327c-.381.596-1.027.922-1.685.922z" fill="rgb(0,0,0)" style="fill: rgb(255, 255, 255);"></path></g></g><g id="ARC_320_"><g><path d="m47.222 21.047c-.032 0-.063 0-.095-.002-1.104-.051-1.956-.988-1.905-2.091.003-.053-.033-.096-.054-.118-.02-.018-.04-.08-.128-.058-1.066.053-2.037-.807-2.085-1.911s.808-2.037 1.911-2.085c1.161-.051 2.304.397 3.134 1.23.828.83 1.271 1.97 1.218 3.127-.05 1.072-.935 1.908-1.996 1.908z" fill="rgb(0,0,0)" style="fill: rgb(255, 255, 255);"></path></g></g><g id="ARC_321_"><g><path d="m38.706 15.173c-.725 0-1.424-.395-1.778-1.083-.021-.04-.072-.066-.114-.077-.017-.004-.076-.018-.116.006-.926.602-2.164.337-2.767-.588-.602-.926-.338-2.165.589-2.767.972-.631 2.184-.821 3.318-.519 1.145.303 2.107 1.071 2.643 2.107.508.981.123 2.188-.858 2.695-.295.154-.608.226-.917.226z" fill="rgb(0,0,0)" style="fill: rgb(255, 255, 255);"></path></g></g><g id="ARC_322_"><g><path d="m25.294 15.173c-.313 0-.631-.074-.928-.229-.978-.514-1.354-1.723-.841-2.701.541-1.031 1.503-1.795 2.639-2.096 1.127-.299 2.332-.113 3.308.512.93.596 1.2 1.833.604 2.763-.597.929-1.833 1.2-2.764.604-.042-.027-.091-.021-.125-.012-.031.008-.09.031-.12.088-.358.681-1.053 1.071-1.773 1.071z" fill="rgb(0,0,0)" style="fill: rgb(255, 255, 255);"></path></g></g></g></svg>